<svg version="1.1" id="Layer_1" xmlns="http://www.w3.org/2000/svg" xmlns:xlink="http://www.w3.org/1999/xlink" x="0px" y="0px"
	 width="100%" viewBox="0 0 1008 832" enable-background="new 0 0 1008 832" xml:space="preserve">
<path fill="#000000" opacity="1.000000" stroke="none" 
	d="
M444.999878,629.380615 
	C431.334259,629.381165 418.163116,629.161072 405.005859,629.493286 
	C399.937561,629.621399 398.536652,628.071838 398.547638,623.024048 
	C398.701477,552.363403 398.649780,481.702240 398.649780,411.041229 
	C398.649780,338.380371 398.650238,265.719513 398.654694,193.058670 
	C398.655121,185.698029 398.668549,185.686264 406.009552,185.684738 
	C431.840820,185.679398 457.673218,185.807495 483.502380,185.575638 
	C488.542297,185.530411 490.314819,187.010681 490.094879,192.070465 
	C489.757385,199.834259 490.006226,207.623535 490.006226,215.134354 
	C491.725220,215.785431 492.229980,214.984222 492.791565,214.440094 
	C512.951172,194.908386 537.736694,185.066544 564.900757,180.715530 
	C593.631653,176.113525 621.953857,178.535492 649.669739,187.457443 
	C675.124695,195.651581 696.763123,209.807007 714.800293,229.506699 
	C739.743042,256.748657 752.626160,289.264252 757.508240,325.525635 
	C762.132263,359.869415 758.750000,393.335175 746.945618,425.751648 
	C737.549744,451.554016 722.073303,473.405121 701.089233,491.384003 
	C678.147888,511.039948 651.519714,522.267334 621.959167,526.819397 
	C592.069763,531.422058 562.575745,530.294861 534.014587,519.109802 
	C518.926453,513.201050 505.395752,504.930786 494.230652,493.037628 
	C493.553619,492.316437 492.776825,491.680511 491.993652,491.072968 
	C491.780121,490.907318 491.374054,490.989899 490.938324,490.946899 
	C489.293701,492.766937 490.047516,495.035522 490.045868,497.087128 
	C490.012451,538.417053 490.042755,579.747070 490.049133,621.077026 
	C490.050415,629.370422 490.029449,629.372253 481.995392,629.374573 
	C469.830231,629.378052 457.665070,629.378601 444.999878,629.380615 
M540.562134,266.053894 
	C514.263000,276.436676 497.352112,295.157959 490.113525,322.588531 
	C485.316925,340.765137 484.601776,359.144867 488.477539,377.434418 
	C495.213379,409.220856 513.279175,431.863892 544.313538,443.076447 
	C561.489929,449.282135 579.367493,449.245361 597.043945,446.434814 
	C625.949707,441.838867 646.853027,425.616119 659.219849,399.269379 
	C671.428223,373.260162 672.359375,345.981812 663.170715,319.039093 
	C654.132263,292.536743 636.102234,273.644745 609.007996,265.003174 
	C586.527893,257.833252 563.776123,258.343689 540.562134,266.053894 
z"/>
<path fill="#000000" opacity="1.000000" stroke="none" 
	d="
M139.613586,427.564880 
	C131.302750,423.290619 123.311691,419.227417 115.364639,415.079895 
	C113.181541,413.940582 110.666252,412.847595 110.822403,409.760773 
	C110.963181,406.977661 113.291939,406.082520 115.370461,405.005463 
	C123.333778,400.878906 131.275452,396.710571 139.236359,392.579315 
	C141.734680,391.282837 144.629822,389.283661 146.461044,393.020020 
	C148.137772,396.441193 144.933777,397.595245 142.626099,398.789185 
	C135.731323,402.356415 128.791367,405.836334 121.150650,409.714996 
	C127.483902,414.110199 133.897903,416.399200 139.769943,419.663391 
	C140.784882,420.227539 141.870789,420.662720 142.896622,421.208771 
	C145.122299,422.393463 147.853455,423.664948 146.603745,426.719330 
	C145.212387,430.119812 142.471481,429.270844 139.613586,427.564880 
z"/>
<path fill="#000000" opacity="1.000000" stroke="none" 
	d="
M239.691605,420.760498 
	C234.620880,423.346436 229.866028,425.734924 225.130829,428.161774 
	C222.984680,429.261719 220.927170,429.715302 219.641632,427.082336 
	C218.381638,424.501709 219.979187,422.987000 222.060043,421.923981 
	C227.836411,418.973053 233.662262,416.118988 239.437881,413.166656 
	C241.033661,412.350952 242.878220,411.878937 244.539780,409.544525 
	C238.264053,406.389160 232.107422,403.321777 225.980347,400.196442 
	C224.064865,399.219421 222.060516,398.294342 220.410172,396.958435 
	C219.094116,395.893127 218.557297,394.199158 219.667847,392.473541 
	C220.745193,390.799591 222.280518,390.350616 223.976654,391.220001 
	C233.584488,396.144623 243.255356,400.960876 252.692276,406.197021 
	C256.445312,408.279480 256.153717,411.666412 252.309525,413.972504 
	C248.324554,416.363037 244.122559,418.391724 239.691605,420.760498 
z"/>
<path fill="#000000" opacity="1.000000" stroke="none" 
	d="
M178.727814,410.871918 
	C181.860336,402.043945 184.846725,393.579590 187.924606,385.148651 
	C188.819504,382.697296 189.598099,379.422302 193.253952,380.806580 
	C196.447052,382.015656 195.410995,384.878937 194.576447,387.244812 
	C188.992325,403.075378 183.380859,418.896393 177.719818,434.699554 
	C176.941238,436.873016 175.955246,439.588470 173.004684,438.722168 
	C169.712051,437.755432 170.433884,434.817535 171.230988,432.436127 
	C173.604828,425.344025 176.142731,418.306885 178.727814,410.871918 
z"/>
</svg>